<!DOCTYPE svg PUBLIC "-//W3C//DTD SVG 1.1//EN" "http://www.w3.org/Graphics/SVG/1.1/DTD/svg11.dtd">
<!-- Uploaded to: SVG Repo, www.svgrepo.com, Transformed by: SVG Repo Mixer Tools -->
<svg fill="#ffffff" width="256px" height="256px" viewBox="-10 0 32 32" version="1.1" xmlns="http://www.w3.org/2000/svg">
<g id="SVGRepo_bgCarrier" stroke-width="0"/>
<g id="SVGRepo_tracerCarrier" stroke-linecap="round" stroke-linejoin="round"/>
<g id="SVGRepo_iconCarrier"> <title>bookmaker</title> <path d="M11.28 24.44c-0.2 0-0.4-0.080-0.56-0.24l-4.68-4.28-4.68 4.28c-0.24 0.24-0.6 0.28-0.92 0.16-0.28-0.12-0.48-0.44-0.48-0.76v-15.2c0-0.48 0.36-0.84 0.84-0.84h10.44c0.48 0 0.84 0.36 0.84 0.84v15.2c0 0.32-0.2 0.64-0.52 0.76 0 0.040-0.2 0.080-0.28 0.080zM1.68 9.24v12.44l3.84-3.52c0.32-0.28 0.8-0.28 1.12 0l3.84 3.52v-12.44h-8.8z"/> </g>
</svg>